<svg width="350" height="120" viewBox="0 0 350 120" fill="none" xmlns="http://www.w3.org/2000/svg">
<path fill-rule="evenodd" clip-rule="evenodd" d="M342.319 10.4365V48.1896H349.761V10.4365H342.319ZM324.168 49.0969C333.607 49.0969 338.87 42.7443 338.87 34.032C338.87 25.3198 333.607 18.967 324.168 18.967C314.73 18.967 309.466 25.3198 309.466 34.032C309.466 42.7443 314.73 49.0969 324.168 49.0969ZM324.168 24.2307C328.524 24.2307 331.247 27.8608 331.247 34.032C331.247 40.0217 328.524 43.8333 324.168 43.8333C319.812 43.8333 317.09 40.2032 317.09 34.032C317.09 27.8608 319.812 24.2307 324.168 24.2307ZM175.153 22.7791C175.153 29.4948 170.615 33.3064 165.17 34.0324C163.355 34.2139 161.904 34.2139 159.726 34.2139H159.725H154.28V48.1898H146.838V11.1627H159.725C161.903 11.1627 163.173 11.1627 165.17 11.3442C170.797 12.2518 175.153 16.0634 175.153 22.7791ZM167.348 22.7791C167.348 19.3305 165.533 17.6969 162.992 17.3339C162.266 17.1524 160.995 17.1524 159.725 17.1524H154.461V28.5872H159.725C160.995 28.5872 162.266 28.5872 162.992 28.4057C165.533 27.8612 167.348 26.2277 167.348 22.7791ZM195.3 25.3201V19.3304C194.755 19.1489 194.211 18.9674 193.122 19.1489C191.488 19.1489 189.673 19.8749 188.221 21.1455L186.043 25.1386V19.8749H178.601V48.3713H186.043V35.3029C186.043 27.6796 189.129 24.9571 195.3 25.3201ZM226.156 34.032C226.156 42.7443 220.892 49.0969 211.454 49.0969C202.016 49.0969 196.752 42.7443 196.752 34.032C196.752 25.3198 202.016 18.967 211.454 18.967C220.892 18.967 226.156 25.3198 226.156 34.032ZM218.533 34.032C218.533 27.8608 215.81 24.2307 211.454 24.2307C207.098 24.2307 204.375 27.8608 204.375 34.032C204.375 40.2032 207.098 43.8333 211.454 43.8333C215.81 43.8333 218.533 40.0217 218.533 34.032ZM239.587 40.5661V38.025V24.9566H245.395V20.056H239.587V10.6177H232.145V20.056H227.97V24.9566H232.145V38.9325V38.9329C232.145 40.5663 232.145 41.8367 232.327 43.1072C232.69 47.1003 234.686 48.9153 240.131 48.9153C241.765 48.9153 243.398 48.7338 245.032 48.5523V43.6517C240.857 44.0147 239.768 43.2886 239.587 40.5661ZM276.977 34.032C276.977 42.7443 271.714 49.0969 262.275 49.0969C252.837 49.0969 247.573 42.7443 247.573 34.032C247.573 25.3198 252.837 18.967 262.275 18.967C271.714 18.967 276.977 25.3198 276.977 34.032ZM269.354 34.032C269.354 27.8608 266.632 24.2307 262.275 24.2307C257.919 24.2307 255.197 27.8608 255.197 34.032C255.197 40.2032 257.919 43.8333 262.275 43.8333C266.632 43.8333 269.354 40.0217 269.354 34.032ZM299.666 30.0389H306.926C306.381 23.6862 301.481 18.967 294.039 18.967C286.234 18.967 279.881 24.4122 279.881 34.2135C279.881 44.0148 285.69 48.9154 293.494 48.9154C300.573 48.9154 305.837 45.4668 307.107 38.3881H299.666C298.94 42.0182 296.761 43.8333 293.857 43.8333C290.227 43.8333 287.505 40.9292 287.505 33.8505C287.505 27.3163 290.046 24.2307 293.857 24.2307C296.761 24.2307 298.94 25.8643 299.666 30.0389ZM173.882 97.741H147.201V59.9878H154.642V91.57H173.882V97.741ZM192.396 96.652L193.848 93.566L194.211 97.741H201.471C201.108 94.474 200.926 92.658 200.926 90.48V81.224V81.223C200.926 79.771 200.926 78.138 200.745 76.868C200.2 71.967 197.296 68.518 189.31 68.518C182.594 68.518 177.331 72.148 177.149 78.501H184.409C184.591 75.234 186.224 73.6 189.128 73.6C192.033 73.6 193.303 75.052 193.485 77.049C193.666 78.138 193.666 78.864 193.666 79.771V79.772V80.316H191.851C181.687 80.316 176.242 83.765 176.242 90.117C176.242 95.563 180.416 98.467 185.317 98.467C188.039 98.467 190.399 97.922 192.396 96.652ZM193.666 84.854V87.213C193.666 91.206 191.125 93.203 188.221 93.203C185.498 93.203 183.865 92.114 183.865 89.573C183.865 85.761 187.858 84.491 193.666 84.854ZM236.138 82.857C236.138 93.203 229.786 98.467 222.525 98.467C220.166 98.467 217.262 97.922 215.81 96.833L213.995 93.929V97.741H206.553V59.9878H213.995V73.601L216.173 70.515C217.806 69.245 220.71 68.519 223.614 68.519C231.419 68.337 236.138 74.508 236.138 82.857ZM228.515 83.402C228.515 77.594 225.793 73.601 221.255 73.601C217.262 73.601 213.813 76.142 213.813 83.039V84.31C213.813 90.844 217.443 93.022 220.892 93.022C225.43 93.203 228.515 89.936 228.515 83.402ZM254.834 77.413H262.275C261.549 72.149 257.738 68.337 251.022 68.337C244.306 68.337 239.769 71.604 239.769 77.05C239.769 81.95 243.399 84.31 248.662 85.58C253.563 86.851 255.378 88.121 255.378 90.299C255.378 92.296 253.563 93.385 251.203 93.385C248.662 93.385 246.484 91.933 245.94 88.847H238.498C239.224 95.2 244.125 98.286 251.022 98.286C257.556 98.286 262.82 95.563 262.82 89.755C262.82 84.491 259.371 82.132 253.563 80.68C248.844 79.591 247.029 78.502 247.029 76.324C247.029 74.508 248.299 73.238 250.477 73.238C252.837 73.238 254.289 74.871 254.834 77.413Z" fill="black"/>
<path fill-rule="evenodd" clip-rule="evenodd" d="M67.8829 13.8852L91.66 0.272325C92.386 -0.090775 93.112 -0.090775 93.657 0.272325L117.797 14.0667C118.523 14.4297 118.523 15.5187 117.797 15.8817L94.02 29.4946C93.475 29.8576 92.568 29.8576 92.023 29.4946L67.8829 15.7002C67.1569 15.3372 67.1569 14.2482 67.8829 13.8852ZM4.356 14.0663L28.1332 0.453424C28.8592 0.0904239 29.5853 0.0904239 30.1298 0.453424L86.033 32.3983C86.759 32.7613 86.759 33.8503 86.033 34.2134L62.2562 47.8263C61.7117 48.1893 60.8042 48.1893 60.2597 47.8263L4.356 15.8814C3.63 15.5184 3.63 14.4293 4.356 14.0663ZM63.7087 54.7238V82.131C63.7087 82.857 64.6163 83.402 65.1608 83.039L89.301 69.244C89.664 69.063 89.845 68.7 89.845 68.337V40.2034C89.845 39.4773 88.938 38.9328 88.393 39.2958L64.7978 52.9087C64.0717 53.2718 63.7087 53.9978 63.7087 54.7238ZM120.157 21.1453L96.38 34.7582C95.835 35.1212 95.472 35.8473 95.654 36.3918V70.696C95.654 71.422 95.109 72.148 94.565 72.511L64.7978 89.573C64.0717 89.936 63.7087 90.662 63.7087 91.388V118.795C63.7087 119.521 64.4348 120.066 65.1608 119.703L120.52 87.939C121.246 87.576 121.609 86.85 121.609 86.124V22.0529C121.609 21.3268 120.883 20.7823 120.157 21.1453ZM58.2632 54.5429L58.0817 82.676C58.0817 83.221 57.5372 83.584 56.9927 83.402L27.7703 66.704C27.0443 66.341 26.3183 66.885 26.3183 67.611V100.645C26.3183 101.371 25.4108 101.916 24.8662 101.553L1.089 87.94C0.544501 87.577 0 86.851 0 86.125V21.8719C0 21.1459 0.9075 20.6014 1.452 20.9644L57.3557 52.9094C57.9002 53.0909 58.2632 53.8169 58.2632 54.5429ZM57.1742 89.573L33.2155 75.779C32.671 75.416 31.7634 75.779 31.7634 76.686V104.275C31.7634 105.001 32.308 105.727 32.8525 106.09L56.8112 119.884C57.3557 120.247 58.2632 119.703 58.2632 118.977V91.388C58.2632 90.662 57.7187 89.936 57.1742 89.573Z" fill="black"/>
</svg>
