<svg width="137" height="156" viewBox="0 0 137 156" fill="none" xmlns="http://www.w3.org/2000/svg">
<path d="M113.19 55.73C113.216 55.8321 113.236 55.9356 113.25 56.04C113.255 56.0698 113.255 56.1002 113.25 56.13C113.296 56.495 113.323 56.8621 113.33 57.23C113.33 57.28 113.33 57.33 113.33 57.38V95.48C113.33 98.1321 112.276 100.676 110.401 102.551C108.526 104.426 105.982 105.48 103.33 105.48C100.678 105.48 98.1343 104.426 96.2589 102.551C94.3836 100.676 93.33 98.1321 93.33 95.48V75.09L36.33 109.46C34.0584 110.83 31.3357 111.241 28.7608 110.604C26.186 109.966 23.9698 108.332 22.6 106.06C21.2302 103.788 20.8188 101.066 21.4564 98.4908C22.094 95.9159 23.7284 93.6998 26 92.33L83.67 57.57L65.35 47C64.2035 46.3481 63.1973 45.476 62.3893 44.4337C61.5813 43.3914 60.9874 42.1996 60.6419 40.9269C60.2964 39.6542 60.206 38.3257 60.376 37.0179C60.546 35.7101 60.9729 34.4488 61.6324 33.3067C62.2918 32.1646 63.1706 31.1642 64.2182 30.3631C65.2658 29.562 66.4615 28.9761 67.7365 28.639C69.0115 28.3019 70.3406 28.2203 71.6472 28.399C72.9539 28.5777 74.2123 29.013 75.35 29.68L108.35 48.68C108.697 48.8852 109.031 49.1123 109.35 49.36L109.55 49.52C109.802 49.7198 110.042 49.9335 110.27 50.16L110.43 50.32L133.13 36.62L70.83 0.679975C70.0547 0.232356 69.1752 -0.0032959 68.28 -0.0032959C67.3848 -0.0032959 66.5053 0.232356 65.73 0.679975L2.84 37L33.25 55.12L55.83 42.12C56.3255 44.0475 57.1996 45.8571 58.4013 47.4435C59.6031 49.0299 61.1086 50.3612 62.83 51.36L73.83 57.7L30.91 83.55V60.71L0 42.28V114.53C0.000167322 115.424 0.235952 116.303 0.683613 117.077C1.13127 117.851 1.77501 118.494 2.55 118.94L65.21 155.12L65.14 119.39L47 108.9L88.38 83.9V95.48C88.3789 97.6007 88.8296 99.6973 89.7021 101.63C90.5745 103.563 91.8488 105.288 93.44 106.69L71.14 119.55L71.21 155.2L134 118.94C134.775 118.494 135.419 117.851 135.866 117.077C136.314 116.303 136.55 115.424 136.55 114.53V41.64L113.19 55.73Z" fill="white"/>
</svg>
