<svg width="525" height="84" viewBox="0 0 525 84" fill="none" xmlns="http://www.w3.org/2000/svg">
<path fill-rule="evenodd" clip-rule="evenodd" d="M352.478 14.2378V59.9741H361.493V14.2378H352.478ZM228.242 50.7387V47.6603V31.8286H235.278V25.8916H228.242V14.4575H219.227V25.8916H214.169V31.8286H219.227V48.7597C219.227 50.7387 219.227 52.278 219.446 53.8172C219.886 58.6547 222.305 60.853 228.902 60.853C230.881 60.853 232.859 60.634 234.838 60.414V54.4768C229.781 54.9166 228.462 54.037 228.242 50.7387ZM138.088 42.8229C144.685 41.9434 150.182 37.3257 150.182 29.19C150.182 20.8343 144.905 16.2167 138.308 15.3372C135.89 15.1173 134.35 15.1172 131.712 15.1172H116.1V59.974H124.895V43.0428H131.492H131.494C134.131 43.0428 135.89 43.0428 138.088 42.8229ZM135.45 22.5934C138.528 23.0331 140.727 25.0121 140.727 29.19C140.727 33.3678 138.528 35.3467 135.45 36.0064C134.57 36.2263 133.031 36.2263 131.492 36.2263H125.115V22.3734H131.492C133.031 22.3734 134.57 22.3735 135.45 22.5934ZM174.59 32.0485V24.7922C173.71 24.5723 173.05 24.5723 171.951 24.5723C169.972 24.5723 167.773 25.4519 166.014 26.9911L163.375 31.8286V25.4519H154.36V59.974H163.375V44.1422C163.375 34.907 167.114 31.6087 174.59 32.0485ZM211.97 42.6029C211.97 53.1575 205.594 60.853 194.159 60.853C182.725 60.853 176.349 53.1575 176.349 42.6029C176.349 32.0484 182.725 24.3524 194.159 24.3524C205.594 24.5723 211.97 32.2683 211.97 42.6029ZM202.735 42.6029C202.735 35.1268 199.437 30.7292 194.159 30.7292C188.882 30.7292 185.584 35.1268 185.584 42.6029C185.584 50.0791 188.882 54.4769 194.159 54.4769C199.437 54.4769 202.735 50.0791 202.735 42.6029ZM273.538 42.6029C273.538 53.1575 267.162 60.853 255.728 60.853C244.293 60.853 237.917 53.1575 237.917 42.6029C237.917 32.0484 244.293 24.3524 255.728 24.3524C266.942 24.5723 273.538 32.2683 273.538 42.6029ZM264.083 42.6029C264.083 35.1268 260.785 30.7292 255.508 30.7292C250.23 30.7292 246.932 35.1268 246.932 42.6029C246.932 50.0791 250.23 54.4769 255.508 54.4769C261.005 54.4769 264.083 50.0791 264.083 42.6029ZM300.804 37.9854H309.6C308.94 30.2894 303.223 24.5723 293.988 24.5723C284.533 24.5723 276.837 31.1689 276.837 43.0428C276.837 54.9166 283.873 60.853 293.328 60.853C301.904 60.853 308.28 56.6757 309.82 48.1001H300.804C299.925 52.4978 297.286 54.6967 293.768 54.6967C289.37 54.6967 286.072 51.1785 286.072 42.603C286.072 34.6871 289.15 30.949 293.768 30.949C297.286 30.949 299.925 32.928 300.804 37.9854ZM348.52 42.6029C348.52 53.1575 342.143 60.853 330.709 60.853C319.275 60.853 312.898 53.1575 312.898 42.6029C312.898 32.0484 319.275 24.3524 330.709 24.3524C342.143 24.5723 348.52 32.2683 348.52 42.6029ZM339.284 42.6029C339.284 35.1268 335.986 30.7292 330.709 30.7292C325.432 30.7292 322.133 35.1268 322.133 42.6029C322.133 50.0791 325.432 54.4769 330.709 54.4769C335.986 54.4769 339.284 50.0791 339.284 42.6029ZM416.904 59.9741H384.581V14.2378H393.596V52.4979H416.904V59.9741ZM439.333 58.6546L441.092 54.9167L441.531 59.974H450.327C449.887 56.0161 449.667 53.8172 449.667 51.1786V39.9643C449.667 38.2052 449.667 36.2263 449.447 34.6871C448.788 28.7502 445.27 24.5723 435.594 24.5723C427.459 24.5723 421.082 28.97 420.862 36.666H429.658C429.878 32.7081 431.856 30.7292 435.375 30.7292C438.893 30.7292 440.432 32.4882 440.652 34.9069C440.872 36.2263 440.872 37.1058 440.872 38.2052V38.8649H438.673C426.359 38.8649 419.763 43.0428 419.763 50.7388C419.763 57.3354 424.82 60.853 430.757 60.853C434.055 60.853 436.914 60.194 439.333 58.6546ZM441.092 44.362V47.2207C441.092 52.0582 438.013 54.4769 434.495 54.4769C431.197 54.4769 429.218 53.1576 429.218 50.0791C429.218 45.4615 434.055 43.9223 441.092 44.362ZM492.545 41.9434C492.545 54.4769 484.849 60.854 476.054 60.854C473.195 60.854 469.677 60.194 467.918 58.8747L465.719 55.3564V59.9741H456.704V14.2378H465.719V30.7293L468.358 26.9912C470.337 25.452 473.855 24.5723 477.373 24.5723C486.828 24.5723 492.545 31.8286 492.545 41.9434ZM483.09 42.603C483.09 35.5667 479.792 30.7293 474.295 30.7293C469.457 30.7293 465.279 33.8076 465.279 42.1632V43.7025C465.279 51.6184 469.677 54.257 473.855 54.257C479.352 54.4769 483.09 50.5189 483.09 42.603ZM514.974 35.3467H523.989C523.109 29.1899 518.492 24.3524 510.356 24.3524C502.22 24.3524 496.723 28.3103 496.723 34.9069C496.723 40.8439 501.121 43.7024 507.497 45.2416C513.434 46.7808 515.633 48.32 515.633 50.9586C515.633 53.3773 513.434 54.6967 510.576 54.6967C507.497 54.6967 504.859 52.9376 504.199 49.1995H495.184C496.063 56.8955 502 60.634 510.356 60.634C518.272 60.634 524.649 57.3353 524.649 50.299C524.649 43.9223 520.471 41.0637 513.434 39.3047C507.717 37.9853 505.519 36.6661 505.519 34.0275C505.519 31.8286 507.058 30.2894 509.696 30.2894C512.555 30.2894 514.314 32.2683 514.974 35.3467Z" fill="white"/>
<path fill-rule="evenodd" clip-rule="evenodd" d="M3.0784 9.62002L19.7897 0.164925C20.2295 -0.054975 20.6693 -0.054975 21.1091 0.164925L60.2488 22.5933C60.6886 23.0331 60.6886 23.6927 60.2488 23.9126L43.5374 33.3677C43.0977 33.5876 42.6579 33.5876 42.2181 33.3677L3.0784 10.9394C2.6386 10.4996 2.6386 9.83992 3.0784 9.62002ZM47.4954 9.62002L64.207 0.164925C64.647 -0.054975 65.306 -0.054975 65.526 0.164925L82.457 9.84002C82.897 10.2797 82.897 10.9393 82.457 11.1592L65.746 20.6143C65.306 20.8342 64.866 20.8342 64.427 20.6143L47.4954 10.9394C47.0556 10.4996 47.0556 9.83992 47.4954 9.62002ZM44.6369 38.2053V57.5552C44.6369 57.995 45.2965 58.4349 45.7363 58.215L62.6675 48.54L62.6676 48.5398C62.8875 48.32 63.1073 48.1002 63.1073 47.8803V28.3104C63.1073 27.8706 62.4476 27.4309 62.0079 27.6508L45.5164 37.1059C45.0766 37.3257 44.6369 37.7655 44.6369 38.2053ZM84.436 14.8975L67.725 24.3526C67.065 24.5725 66.845 25.0123 66.845 25.2322V49.1997C66.845 49.8594 66.625 50.2992 66.186 50.5191L45.2965 62.393C44.8568 62.833 44.6369 63.273 44.6369 63.712V83.062C44.6369 83.722 45.2965 83.942 45.7363 83.722L84.876 61.733C85.316 61.293 85.536 60.854 85.536 60.414V15.5572C85.536 14.8975 84.876 14.6776 84.436 14.8975ZM40.8988 38.2051V57.775C40.8988 58.2148 40.4591 58.4347 40.0193 58.2148L19.5699 46.5607C19.1301 46.3409 18.4704 46.5609 18.4704 47.2205V70.309C18.4704 70.748 17.8108 71.188 17.371 70.968L0.659698 61.513C0.219898 61.293 0 60.853 0 60.194V15.117C0 14.6773 0.6597 14.2375 1.0994 14.4574L40.2392 36.8858C40.679 37.1057 40.8988 37.7653 40.8988 38.2051ZM40.0193 62.613L23.3079 52.9376C22.8682 52.7178 22.2085 53.1575 22.2085 53.5973V72.947C22.2085 73.607 22.4284 74.047 22.8682 74.267L39.5795 83.942C40.0193 84.161 40.6789 83.722 40.6789 83.282V63.932C40.6789 63.272 40.4591 62.833 40.0193 62.613Z" fill="white"/>
</svg>
