<svg width="384" height="118" viewBox="0 0 384 118" fill="none" xmlns="http://www.w3.org/2000/svg">
<path d="M140.191 87H129.469V35.6016H158.93V44.5312H140.191V57.7852H157.629V66.6797H140.191V87ZM178.863 47.6953V87H168.141V47.6953H178.863ZM173.52 32.2969C175.113 32.2969 176.484 32.6719 177.633 33.4219C178.781 34.1484 179.355 35.5195 179.355 37.5352C179.355 39.5273 178.781 40.9102 177.633 41.6836C176.484 42.4336 175.113 42.8086 173.52 42.8086C171.902 42.8086 170.52 42.4336 169.371 41.6836C168.246 40.9102 167.684 39.5273 167.684 37.5352C167.684 35.5195 168.246 34.1484 169.371 33.4219C170.52 32.6719 171.902 32.2969 173.52 32.2969ZM200.871 87H190.148V32.2969H200.871V87ZM229.418 35.6016C236.051 35.6016 240.891 37.0312 243.938 39.8906C246.984 42.7266 248.508 46.6406 248.508 51.6328C248.508 53.8828 248.168 56.0391 247.488 58.1016C246.809 60.1406 245.695 61.957 244.148 63.5508C242.625 65.1445 240.586 66.4102 238.031 67.3477C235.477 68.2617 232.324 68.7188 228.574 68.7188H223.898V87H213V35.6016H229.418ZM228.855 44.5312H223.898V59.7891H227.484C229.523 59.7891 231.293 59.5195 232.793 58.9805C234.293 58.4414 235.453 57.5977 236.273 56.4492C237.094 55.3008 237.504 53.8242 237.504 52.0195C237.504 49.4883 236.801 47.6133 235.395 46.3945C233.988 45.1523 231.809 44.5312 228.855 44.5312ZM273.469 46.8867C278.742 46.8867 282.785 48.0352 285.598 50.332C288.41 52.6289 289.816 56.1211 289.816 60.8086V87H282.328L280.254 81.6562H279.973C278.848 83.0625 277.699 84.2109 276.527 85.1016C275.355 85.9922 274.008 86.6484 272.484 87.0703C270.961 87.4922 269.109 87.7031 266.93 87.7031C264.609 87.7031 262.523 87.2578 260.672 86.3672C258.844 85.4766 257.402 84.1172 256.348 82.2891C255.293 80.4375 254.766 78.0938 254.766 75.2578C254.766 71.0859 256.23 68.0156 259.16 66.0469C262.09 64.0547 266.484 62.9531 272.344 62.7422L279.164 62.5312V60.8086C279.164 58.7461 278.625 57.2344 277.547 56.2734C276.469 55.3125 274.969 54.832 273.047 54.832C271.148 54.832 269.285 55.1016 267.457 55.6406C265.629 56.1797 263.801 56.8594 261.973 57.6797L258.422 50.4375C260.508 49.3359 262.84 48.4688 265.418 47.8359C268.02 47.2031 270.703 46.8867 273.469 46.8867ZM279.164 68.7891L275.016 68.9297C271.547 69.0234 269.133 69.6445 267.773 70.793C266.438 71.9414 265.77 73.4531 265.77 75.3281C265.77 76.9688 266.25 78.1406 267.211 78.8438C268.172 79.5234 269.426 79.8633 270.973 79.8633C273.27 79.8633 275.203 79.1836 276.773 77.8242C278.367 76.4648 279.164 74.5312 279.164 72.0234V68.7891ZM328.312 75.3281C328.312 78 327.68 80.2617 326.414 82.1133C325.172 83.9414 323.309 85.3359 320.824 86.2969C318.34 87.2344 315.246 87.7031 311.543 87.7031C308.801 87.7031 306.445 87.5273 304.477 87.1758C302.531 86.8242 300.562 86.2383 298.57 85.418V76.5586C300.703 77.5195 302.988 78.3164 305.426 78.9492C307.887 79.5586 310.043 79.8633 311.895 79.8633C313.98 79.8633 315.469 79.5586 316.359 78.9492C317.273 78.3164 317.73 77.4961 317.73 76.4883C317.73 75.832 317.543 75.2461 317.168 74.7305C316.816 74.1914 316.043 73.5938 314.848 72.9375C313.652 72.2578 311.777 71.3789 309.223 70.3008C306.762 69.2695 304.734 68.2266 303.141 67.1719C301.57 66.1172 300.398 64.875 299.625 63.4453C298.875 61.9922 298.5 60.1523 298.5 57.9258C298.5 54.293 299.906 51.5625 302.719 49.7344C305.555 47.8828 309.34 46.957 314.074 46.957C316.512 46.957 318.832 47.2031 321.035 47.6953C323.262 48.1875 325.547 48.9727 327.891 50.0508L324.656 57.7852C322.711 56.9414 320.871 56.25 319.137 55.7109C317.426 55.1719 315.68 54.9023 313.898 54.9023C312.328 54.9023 311.145 55.1133 310.348 55.5352C309.551 55.957 309.152 56.6016 309.152 57.4688C309.152 58.1016 309.352 58.6641 309.75 59.1562C310.172 59.6484 310.969 60.1992 312.141 60.8086C313.336 61.3945 315.082 62.1562 317.379 63.0938C319.605 64.0078 321.539 64.9688 323.18 65.9766C324.82 66.9609 326.086 68.1914 326.977 69.668C327.867 71.1211 328.312 73.0078 328.312 75.3281ZM364.102 75.3281C364.102 78 363.469 80.2617 362.203 82.1133C360.961 83.9414 359.098 85.3359 356.613 86.2969C354.129 87.2344 351.035 87.7031 347.332 87.7031C344.59 87.7031 342.234 87.5273 340.266 87.1758C338.32 86.8242 336.352 86.2383 334.359 85.418V76.5586C336.492 77.5195 338.777 78.3164 341.215 78.9492C343.676 79.5586 345.832 79.8633 347.684 79.8633C349.77 79.8633 351.258 79.5586 352.148 78.9492C353.062 78.3164 353.52 77.4961 353.52 76.4883C353.52 75.832 353.332 75.2461 352.957 74.7305C352.605 74.1914 351.832 73.5938 350.637 72.9375C349.441 72.2578 347.566 71.3789 345.012 70.3008C342.551 69.2695 340.523 68.2266 338.93 67.1719C337.359 66.1172 336.188 64.875 335.414 63.4453C334.664 61.9922 334.289 60.1523 334.289 57.9258C334.289 54.293 335.695 51.5625 338.508 49.7344C341.344 47.8828 345.129 46.957 349.863 46.957C352.301 46.957 354.621 47.2031 356.824 47.6953C359.051 48.1875 361.336 48.9727 363.68 50.0508L360.445 57.7852C358.5 56.9414 356.66 56.25 354.926 55.7109C353.215 55.1719 351.469 54.9023 349.688 54.9023C348.117 54.9023 346.934 55.1133 346.137 55.5352C345.34 55.957 344.941 56.6016 344.941 57.4688C344.941 58.1016 345.141 58.6641 345.539 59.1562C345.961 59.6484 346.758 60.1992 347.93 60.8086C349.125 61.3945 350.871 62.1562 353.168 63.0938C355.395 64.0078 357.328 64.9688 358.969 65.9766C360.609 66.9609 361.875 68.1914 362.766 69.668C363.656 71.1211 364.102 73.0078 364.102 75.3281Z" fill="black"/>
<path d="M95.76 54.24H91.21H81.84V43.71L60.69 58.79L81.84 73.94V63.34H91.21H95.76H100.31V54.24H95.76Z" fill="black"/>
<path d="M51.78 58.79L30.63 43.71V54.24H21.26H16.71H12.16V63.34H16.71H21.26H30.63V73.94L51.78 58.79Z" fill="black"/>
<path d="M56.24 7.89001L12.16 33.34V45.14H21.26V38.6L56.24 18.4L91.21 38.6V45.14H100.31V33.34L56.24 7.89001Z" fill="black"/>
<path d="M91.21 78.9901L56.24 99.1801L21.26 78.9901V72.4401H12.16V84.2401L56.24 109.69L100.31 84.2401V72.4401H91.21V78.9901Z" fill="black"/>
</svg>
