<svg width="601" height="156" viewBox="0 0 601 156" fill="none" xmlns="http://www.w3.org/2000/svg">
<g clip-path="url(#clip0_5174_403)">
<path d="M113.19 55.73C113.216 55.8321 113.236 55.9356 113.25 56.04C113.255 56.0698 113.255 56.1002 113.25 56.13C113.296 56.495 113.323 56.8621 113.33 57.23C113.33 57.28 113.33 57.33 113.33 57.38V95.48C113.33 98.1321 112.276 100.676 110.401 102.551C108.526 104.426 105.982 105.48 103.33 105.48C100.678 105.48 98.1343 104.426 96.2589 102.551C94.3836 100.676 93.33 98.1321 93.33 95.48V75.09L36.33 109.46C34.0584 110.83 31.3357 111.241 28.7608 110.604C26.186 109.966 23.9698 108.332 22.6 106.06C21.2302 103.788 20.8188 101.066 21.4564 98.4908C22.094 95.9159 23.7284 93.6998 26 92.33L83.67 57.57L65.35 47C64.2035 46.3481 63.1973 45.476 62.3893 44.4337C61.5813 43.3914 60.9874 42.1996 60.6419 40.9269C60.2964 39.6542 60.206 38.3257 60.376 37.0179C60.546 35.7101 60.9729 34.4488 61.6324 33.3067C62.2918 32.1646 63.1706 31.1642 64.2182 30.3631C65.2658 29.562 66.4615 28.9761 67.7365 28.639C69.0115 28.3019 70.3406 28.2203 71.6472 28.399C72.9539 28.5777 74.2123 29.013 75.35 29.68L108.35 48.68C108.697 48.8852 109.031 49.1123 109.35 49.36L109.55 49.52C109.802 49.7198 110.042 49.9335 110.27 50.16L110.43 50.32L133.13 36.62L70.83 0.679975C70.0547 0.232356 69.1752 -0.0032959 68.28 -0.0032959C67.3848 -0.0032959 66.5053 0.232356 65.73 0.679975L2.84 37L33.25 55.12L55.83 42.12C56.3255 44.0475 57.1996 45.8571 58.4013 47.4435C59.6031 49.0299 61.1086 50.3612 62.83 51.36L73.83 57.7L30.91 83.55V60.71L0 42.28V114.53C0.000167322 115.424 0.235952 116.303 0.683613 117.077C1.13127 117.851 1.77501 118.494 2.55 118.94L65.21 155.12L65.14 119.39L47 108.9L88.38 83.9V95.48C88.3789 97.6007 88.8296 99.6973 89.7021 101.63C90.5745 103.563 91.8488 105.288 93.44 106.69L71.14 119.55L71.21 155.2L134 118.94C134.775 118.494 135.419 117.851 135.866 117.077C136.314 116.303 136.55 115.424 136.55 114.53V41.64L113.19 55.73Z" fill="white"/>
</g>
<path d="M174.55 112.847V42.6124H221.66V54.8554H189.332V71.5909H219.236V83.8338H189.332V100.604H221.796V112.847H174.55Z" fill="white"/>
<path d="M233.138 112.847V60.1709H246.998V69.4646H247.613C248.705 66.3782 250.526 63.9433 253.074 62.16C255.623 60.3767 258.673 59.4851 262.223 59.4851C265.819 59.4851 268.88 60.3881 271.406 62.1943C273.932 63.9776 275.617 66.401 276.459 69.4646H277.005C278.074 66.4467 280.009 64.0347 282.808 62.2286C285.63 60.3996 288.964 59.4851 292.81 59.4851C297.703 59.4851 301.675 61.0512 304.724 64.1833C307.797 67.2927 309.333 71.7052 309.333 77.4208V112.847H294.824V80.3015C294.824 77.3751 294.051 75.1803 292.503 73.7171C290.956 72.2539 289.021 71.5223 286.7 71.5223C284.06 71.5223 282 72.3682 280.521 74.06C279.042 75.729 278.302 77.9353 278.302 80.6788V112.847H264.203V79.9929C264.203 77.4094 263.464 75.3518 261.984 73.82C260.528 72.2882 258.605 71.5223 256.215 71.5223C254.599 71.5223 253.143 71.9338 251.846 72.7569C250.571 73.557 249.558 74.6888 248.807 76.152C248.056 77.5923 247.681 79.2842 247.681 81.2275V112.847H233.138Z" fill="white"/>
<path d="M320.82 112.847V60.1709H335.363V112.847H320.82ZM328.125 53.3807C325.963 53.3807 324.109 52.6605 322.561 51.2202C321.036 49.757 320.274 48.008 320.274 45.9732C320.274 43.9613 321.036 42.2351 322.561 40.7948C324.109 39.3316 325.963 38.6 328.125 38.6C330.287 38.6 332.131 39.3316 333.656 40.7948C335.203 42.2351 335.977 43.9613 335.977 45.9732C335.977 48.008 335.203 49.757 333.656 51.2202C332.131 52.6605 330.287 53.3807 328.125 53.3807Z" fill="white"/>
<path d="M390.639 75.1917L377.326 76.0148C377.098 74.8717 376.609 73.8428 375.858 72.9283C375.107 71.991 374.117 71.2479 372.888 70.6992C371.682 70.1276 370.237 69.8419 368.553 69.8419C366.3 69.8419 364.399 70.322 362.852 71.2822C361.304 72.2196 360.53 73.477 360.53 75.0546C360.53 76.312 361.031 77.3751 362.032 78.2439C363.034 79.1127 364.752 79.81 367.187 80.3358L376.677 82.2563C381.775 83.308 385.576 84.9998 388.079 87.3318C390.583 89.6638 391.834 92.7274 391.834 96.5226C391.834 99.9749 390.822 103.004 388.796 105.611C386.793 108.217 384.04 110.252 380.535 111.715C377.053 113.155 373.036 113.875 368.484 113.875C361.543 113.875 356.013 112.424 351.894 109.52C347.797 106.594 345.396 102.616 344.691 97.5857L358.994 96.8313C359.427 98.9575 360.473 100.581 362.135 101.701C363.796 102.798 365.924 103.347 368.518 103.347C371.067 103.347 373.116 102.856 374.663 101.873C376.234 100.867 377.03 99.5748 377.053 97.9973C377.03 96.6712 376.472 95.5853 375.38 94.7393C374.288 93.8706 372.604 93.2075 370.328 92.7503L361.247 90.9327C356.127 89.9039 352.315 88.1206 349.811 85.5828C347.331 83.0451 346.09 79.81 346.09 75.8776C346.09 72.4939 347.001 69.5789 348.821 67.1326C350.665 64.6863 353.248 62.8001 356.57 61.4741C359.916 60.1481 363.83 59.4851 368.314 59.4851C374.936 59.4851 380.148 60.8911 383.949 63.7032C387.772 66.5153 390.002 70.3448 390.639 75.1917Z" fill="white"/>
<path d="M444.619 75.1917L431.306 76.0148C431.078 74.8717 430.589 73.8428 429.838 72.9283C429.087 71.991 428.097 71.2479 426.868 70.6992C425.662 70.1276 424.216 69.8419 422.532 69.8419C420.279 69.8419 418.379 70.322 416.831 71.2822C415.284 72.2196 414.51 73.477 414.51 75.0546C414.51 76.312 415.011 77.3751 416.012 78.2439C417.013 79.1127 418.732 79.81 421.167 80.3358L430.657 82.2563C435.755 83.308 439.555 84.9998 442.059 87.3318C444.562 89.6638 445.814 92.7274 445.814 96.5226C445.814 99.9749 444.801 103.004 442.776 105.611C440.773 108.217 438.019 110.252 434.515 111.715C431.033 113.155 427.016 113.875 422.464 113.875C415.523 113.875 409.993 112.424 405.873 109.52C401.777 106.594 399.376 102.616 398.67 97.5857L412.974 96.8313C413.406 98.9575 414.453 100.581 416.114 101.701C417.776 102.798 419.904 103.347 422.498 103.347C425.047 103.347 427.095 102.856 428.643 101.873C430.213 100.867 431.01 99.5748 431.033 97.9973C431.01 96.6712 430.452 95.5853 429.36 94.7393C428.267 93.8706 426.583 93.2075 424.307 92.7503L415.227 90.9327C410.106 89.9039 406.294 88.1206 403.791 85.5828C401.31 83.0451 400.07 79.81 400.07 75.8776C400.07 72.4939 400.98 69.5789 402.801 67.1326C404.644 64.6863 407.227 62.8001 410.55 61.4741C413.896 60.1481 417.81 59.4851 422.293 59.4851C428.916 59.4851 434.128 60.8911 437.928 63.7032C441.752 66.5153 443.982 70.3448 444.619 75.1917Z" fill="white"/>
<path d="M469.923 113.841C466.578 113.841 463.597 113.258 460.979 112.092C458.362 110.903 456.291 109.154 454.766 106.845C453.264 104.513 452.513 101.61 452.513 98.1345C452.513 95.208 453.048 92.7503 454.118 90.7612C455.188 88.7722 456.644 87.1718 458.487 85.9601C460.331 84.7483 462.425 83.8338 464.769 83.2165C467.136 82.5993 469.616 82.1649 472.211 81.9134C475.26 81.5933 477.718 81.2961 479.584 81.0217C481.451 80.7245 482.805 80.2901 483.647 79.7185C484.489 79.147 484.91 78.3011 484.91 77.1808V76.975C484.91 74.8031 484.227 73.1227 482.862 71.9338C481.519 70.7449 479.607 70.1505 477.126 70.1505C474.509 70.1505 472.427 70.7335 470.879 71.8995C469.332 73.0426 468.308 74.483 467.807 76.2206L454.357 75.1231C455.04 71.9224 456.382 69.156 458.385 66.824C460.388 64.4691 462.971 62.663 466.134 61.4055C469.32 60.1252 473.007 59.4851 477.195 59.4851C480.108 59.4851 482.896 59.828 485.558 60.5139C488.244 61.1998 490.622 62.2629 492.693 63.7032C494.787 65.1436 496.437 66.9955 497.643 69.2589C498.849 71.4994 499.452 74.1858 499.452 77.318V112.847H485.661V105.542H485.251C484.409 107.188 483.283 108.64 481.872 109.897C480.461 111.132 478.765 112.104 476.785 112.812C474.805 113.498 472.518 113.841 469.923 113.841ZM474.088 103.759C476.228 103.759 478.116 103.336 479.755 102.49C481.394 101.621 482.679 100.455 483.613 98.9918C484.546 97.5286 485.012 95.871 485.012 94.0192V88.4292C484.557 88.7265 483.931 89.0008 483.135 89.2523C482.361 89.4809 481.485 89.6981 480.506 89.9039C479.527 90.0868 478.549 90.2583 477.57 90.4183C476.592 90.5555 475.704 90.6812 474.908 90.7955C473.201 91.047 471.71 91.4471 470.436 91.9958C469.161 92.5445 468.171 93.2876 467.466 94.2249C466.76 95.1394 466.407 96.2826 466.407 97.6543C466.407 99.6434 467.124 101.164 468.558 102.215C470.014 103.244 471.858 103.759 474.088 103.759Z" fill="white"/>
<path d="M510.735 112.847V60.1709H524.833V69.3617H525.38C526.335 66.0924 527.94 63.6232 530.193 61.9542C532.446 60.2624 535.04 59.4165 537.976 59.4165C538.705 59.4165 539.49 59.4622 540.332 59.5536C541.174 59.6451 541.913 59.7708 542.551 59.9309V72.894C541.868 72.6883 540.923 72.5054 539.717 72.3453C538.511 72.1853 537.407 72.1053 536.406 72.1053C534.267 72.1053 532.355 72.574 530.671 73.5113C529.01 74.4258 527.69 75.7061 526.711 77.3523C525.755 78.9984 525.277 80.896 525.277 83.0451V112.847H510.735Z" fill="white"/>
<path d="M560.643 132.6C558.8 132.6 557.07 132.451 555.455 132.154C553.862 131.88 552.542 131.525 551.495 131.091L554.772 120.186C556.479 120.711 558.015 120.997 559.38 121.043C560.769 121.089 561.963 120.769 562.965 120.083C563.989 119.397 564.82 118.231 565.457 116.585L566.31 114.356L547.501 60.1709H562.794L573.65 98.8546H574.196L585.154 60.1709H600.55L580.17 118.539C579.191 121.374 577.86 123.844 576.176 125.947C574.515 128.073 572.41 129.708 569.861 130.851C567.312 132.017 564.239 132.6 560.643 132.6Z" fill="white"/>
<defs>
<clipPath id="clip0_5174_403">
<rect width="136.55" height="155.2" fill="white"/>
</clipPath>
</defs>
</svg>
