<svg width="48" height="46" viewBox="0 0 48 46" fill="none" xmlns="http://www.w3.org/2000/svg">
<path fill-rule="evenodd" clip-rule="evenodd" d="M2.39665 5.27471L11.6366 0.0920445C11.7504 0.0316407 11.8773 4.3869e-05 12.0062 4.3869e-05C12.1352 4.3869e-05 12.2621 0.0316407 12.3758 0.0920445L33.9358 12.3587C33.9801 12.4016 34.0152 12.4528 34.0393 12.5095C34.0633 12.5661 34.0756 12.6269 34.0756 12.6884C34.0756 12.7498 34.0633 12.8107 34.0393 12.8673C34.0152 12.9239 33.9801 12.9752 33.9358 13.018V13.0947L24.6958 18.262C24.58 18.3156 24.4539 18.3433 24.3262 18.3433C24.1986 18.3433 24.0724 18.3156 23.9566 18.262L2.39665 5.99538C2.15025 5.75004 2.15025 5.38204 2.39665 5.27471ZM26.8364 5.27471L36.0764 0.0920445C36.1874 0.0316511 36.3119 0 36.4383 0C36.5648 0 36.6893 0.0316511 36.8002 0.0920445L46.0402 5.38204C46.2866 5.62738 46.2866 5.99538 46.0402 6.10271L36.8002 11.3007C36.6871 11.354 36.5635 11.3816 36.4383 11.3816C36.3132 11.3816 36.1896 11.354 36.0764 11.3007L26.7594 5.99538C26.59 5.75004 26.59 5.38204 26.8364 5.27471ZM25.2964 20.9147V31.5254C25.304 31.584 25.3232 31.6405 25.353 31.6917C25.3827 31.7428 25.4224 31.7876 25.4697 31.8232C25.5171 31.8589 25.571 31.8849 25.6285 31.8996C25.6861 31.9142 25.7459 31.9173 25.8046 31.9087H25.9124L35.1524 26.6034C35.2756 26.496 35.3988 26.3734 35.3988 26.2507V15.5174C35.3763 15.3965 35.3075 15.289 35.207 15.2175C35.1065 15.146 34.982 15.1161 34.8598 15.134L25.7738 20.3167C25.6372 20.357 25.5145 20.4342 25.4194 20.5398C25.3242 20.6453 25.2603 20.7751 25.2348 20.9147H25.2964ZM47.226 8.15738L37.986 13.34C37.6164 13.4627 37.4932 13.6927 37.4932 13.8154V26.956C37.5091 27.099 37.4825 27.2434 37.4168 27.3715C37.3512 27.4996 37.2492 27.6057 37.1236 27.6767L25.589 34.1627C25.3777 34.3534 25.2458 34.616 25.2194 34.8987V45.4787C25.2194 45.5926 25.2649 45.7018 25.3457 45.7823C25.4266 45.8628 25.5363 45.908 25.6506 45.908C25.7115 45.9218 25.7746 45.9218 25.8354 45.908L47.3954 33.856C47.6014 33.6695 47.728 33.4117 47.7496 33.1354V8.60205C47.7498 8.54902 47.7389 8.49653 47.7177 8.4479C47.6964 8.39928 47.6653 8.35557 47.6262 8.31954C47.5871 8.28351 47.541 8.25595 47.4907 8.23859C47.4403 8.22124 47.3869 8.21447 47.3338 8.21871L47.226 8.15738ZM23.202 20.9147V31.648C23.202 31.7294 23.1696 31.8074 23.1118 31.8649C23.0541 31.9224 22.9757 31.9547 22.894 31.9547C22.8391 31.9734 22.7796 31.9734 22.7246 31.9547L11.4826 25.576C11.4014 25.5059 11.2975 25.4673 11.19 25.4673C11.0825 25.4673 10.9787 25.5059 10.8974 25.576C10.8213 25.6828 10.7883 25.8142 10.805 25.944V38.5787C10.7994 38.6367 10.782 38.6929 10.7538 38.744C10.7257 38.795 10.6874 38.8399 10.6413 38.8757C10.5952 38.9116 10.5423 38.9377 10.4857 38.9526C10.4291 38.9674 10.3701 38.9706 10.3122 38.962H10.2044L1.07224 33.7334C0.958312 33.6701 0.864629 33.5761 0.80197 33.4622C0.739311 33.3483 0.71022 33.219 0.718045 33.0894V8.28004C0.726872 8.21803 0.748758 8.15857 0.782268 8.10557C0.815778 8.05256 0.860156 8.0072 0.912497 7.97246C0.964837 7.93772 1.02396 7.91437 1.08599 7.90396C1.14802 7.89355 1.21156 7.89631 1.27245 7.91204L22.8324 20.1787C22.951 20.2608 23.047 20.3712 23.1116 20.4998C23.1761 20.6284 23.2072 20.771 23.202 20.9147ZM22.7246 34.3007L13.4846 28.9954C13.3681 28.9553 13.2405 28.9616 13.1286 29.013C13.0166 29.0645 12.929 29.1571 12.884 29.2714V39.882C12.8682 40.025 12.8948 40.1694 12.9604 40.2975C13.0261 40.4256 13.1281 40.5317 13.2536 40.6027L22.4936 45.8927C22.6102 45.9328 22.7378 45.9265 22.8497 45.8751C22.9617 45.8236 23.0493 45.731 23.0942 45.6167V35.006C23.109 34.8653 23.0818 34.7234 23.0161 34.598C22.9503 34.4726 22.849 34.3692 22.7246 34.3007Z" fill="black"/>
</svg>
