<svg width="226" height="27" viewBox="0 0 226 27" fill="none" xmlns="http://www.w3.org/2000/svg">
<path fill-rule="evenodd" clip-rule="evenodd" d="M130.587 0.804688V25.844H135.546V0.804688H130.587ZM62.2423 20.738V10.434H66.1077V7.18335H62.2423V0.91202H57.2989V7.18335H54.5115V10.434H57.2989V19.7107C57.2733 20.6371 57.3093 21.5643 57.4067 22.486C57.6531 25.1234 58.9467 26.3347 62.6119 26.3347C63.7053 26.3347 64.7987 26.1967 65.8767 26.0434V22.8387C63.0893 23.0687 62.3655 22.5933 62.2423 20.784V20.738ZM12.6543 16.4294C14.517 16.2879 16.2517 15.4318 17.4928 14.0416C18.7339 12.6514 19.3843 10.8358 19.3071 8.97735C19.419 7.11382 18.7987 5.27999 17.5772 3.86357C16.3558 2.44715 14.6291 1.55917 12.7621 1.38735C11.5591 1.27732 10.3508 1.23636 9.14308 1.26469H0.488281V25.798H5.32388V16.5827H8.95828C10.1971 16.6133 11.4366 16.5672 12.6697 16.4447L12.6543 16.4294ZM11.2067 5.35869C11.6308 5.4008 12.0424 5.52599 12.4178 5.72705C12.7932 5.92811 13.125 6.20108 13.394 6.53025C13.6631 6.85942 13.8641 7.2383 13.9856 7.64511C14.1071 8.05192 14.1466 8.47862 14.1019 8.90069V8.97735C14.1914 9.84728 13.9428 10.7183 13.4072 11.4113C12.8715 12.1044 12.0896 12.5667 11.2221 12.7034C10.5038 12.8129 9.77675 12.854 9.05068 12.826H5.53948V5.26669H9.05068C9.77675 5.23874 10.5038 5.27982 11.2221 5.38935L11.2067 5.35869ZM32.7667 10.5414V6.58535C32.2926 6.47544 31.805 6.43412 31.3191 6.46269C30.1094 6.50846 28.9541 6.97508 28.0543 7.78135L26.6221 10.434V6.93802H21.6171V25.844H26.5759V17.2267C26.5759 12.1207 28.6395 10.3114 32.7359 10.5567L32.7667 10.5414ZM53.2795 16.3374C53.2795 22.0874 49.7683 26.396 43.4851 26.396C37.2019 26.396 33.7215 22.1334 33.7215 16.3374C33.7215 10.5414 37.2173 6.27869 43.5005 6.27869C49.7837 6.27869 53.2795 10.6794 53.2795 16.3374ZM48.1975 16.3374C48.1975 12.2434 46.3957 9.82069 43.4851 9.82069C40.5745 9.82069 38.7727 12.2434 38.7727 16.3374C38.7727 20.4314 40.5899 22.8387 43.3927 22.8387C46.1955 22.8387 48.2129 20.4314 48.2129 16.3374H48.1975ZM87.1595 16.3374C87.1595 22.0874 83.6483 26.396 77.3805 26.396C71.1127 26.396 67.6015 22.1334 67.6015 16.3374C67.6015 10.5414 71.0973 6.27869 77.3959 6.27869C79.8974 6.19176 82.3312 7.09755 84.1621 8.7969C85.993 10.4963 87.0712 12.85 87.1595 15.3407C87.1826 15.6725 87.1826 16.0055 87.1595 16.3374ZM81.9697 16.3374C81.9697 12.2434 80.1525 9.82069 77.2419 9.82069C74.3313 9.82069 72.5295 12.2434 72.5295 16.3374C72.5295 20.4314 74.3467 22.8387 77.2419 22.8387C80.1371 22.8387 81.9543 20.4314 81.9543 16.3374H81.9697ZM102.159 13.8074H106.964C106.594 9.59069 103.453 6.46269 98.2937 6.46269C93.1347 6.46269 88.8689 10.066 88.8689 16.5214C88.8689 22.9767 92.7343 26.2734 97.9395 26.2734C102.652 26.2734 106.163 23.9887 107.01 19.2967H102.051C101.991 20.2621 101.574 21.1711 100.88 21.8479C100.186 22.5248 99.2643 22.9215 98.2937 22.9614C95.8759 22.9614 94.0587 21.0294 94.0587 16.3374C94.0587 12.0287 95.7527 9.95869 98.2937 9.95869C100.219 9.95869 101.666 11.032 102.159 13.8074ZM128.416 16.3374C128.416 22.0874 124.905 26.396 118.622 26.396C112.338 26.396 108.812 22.164 108.812 16.3374C108.812 10.5107 112.323 6.27869 118.622 6.27869C124.92 6.27869 128.401 10.6794 128.401 16.3374H128.416ZM123.334 16.3374C123.334 12.2434 121.517 9.82069 118.622 9.82069C115.726 9.82069 113.894 12.2434 113.894 16.3374C113.894 20.4314 115.711 22.8387 118.622 22.8387C121.532 22.8387 123.242 20.4314 123.242 16.3374H123.334ZM166.023 25.844H148.251V0.804688H153.148V21.7347H165.977L166.023 25.844ZM178.343 25.1234L179.313 23.0687L179.544 25.844H184.395C184.177 24.248 184.059 22.64 184.041 21.0294V14.896C184.056 13.9383 184.01 12.9805 183.902 12.0287C183.548 8.77802 181.608 6.49335 176.202 6.49335C171.736 6.49335 168.225 8.88535 168.117 13.1174H172.953C173.061 10.94 174.154 9.85135 176.033 9.85135C177.912 9.85135 178.82 10.8174 178.913 12.1514C179.007 12.7445 179.049 13.3449 179.036 13.9454V14.3287H178.019C171.243 14.3287 167.624 16.6134 167.624 20.8147C167.624 24.4333 170.381 26.3653 173.661 26.3653C175.322 26.4093 176.961 25.984 178.389 25.1387L178.343 25.1234ZM179.313 17.3034V18.8367C179.417 19.7821 179.139 20.7298 178.542 21.4716C177.944 22.2134 177.075 22.6886 176.125 22.7927H175.679C173.877 22.7927 172.799 22.0567 172.799 20.3854C172.799 17.8554 175.417 17.012 179.298 17.3187L179.313 17.3034ZM207.634 16C207.634 22.8694 203.399 26.3653 198.563 26.3653C196.997 26.4247 195.445 26.0477 194.082 25.2767L192.88 23.3447V25.8747H187.922V0.804688H192.88V9.86669L194.328 7.82735C195.818 6.89265 197.558 6.43263 199.318 6.50869C204.477 6.46269 207.634 10.434 207.634 16ZM202.428 16.368C202.428 12.5194 200.611 9.85135 197.593 9.85135C194.929 9.85135 192.634 11.5534 192.634 16.1227V16.966C192.634 21.2747 195.052 22.716 197.362 22.716C200.365 22.854 202.428 20.692 202.428 16.3527V16.368ZM219.969 12.3814H224.928C224.693 10.612 223.783 9.00057 222.386 7.88143C220.99 6.7623 219.214 6.22131 217.428 6.37069C212.947 6.37069 209.928 8.53269 209.928 12.1054C209.928 15.356 212.346 16.92 215.857 17.7634C219.107 18.6067 220.323 19.45 220.323 20.83C220.323 22.21 219.107 22.8694 217.551 22.8694C216.685 22.8969 215.84 22.5955 215.188 22.0261C214.536 21.4567 214.126 20.6619 214.04 19.8027H209.081C209.559 24.004 212.839 26.0587 217.428 26.0587C221.755 26.0587 225.282 24.2494 225.282 20.3854C225.282 16.9047 222.987 15.3407 219.122 14.3747C216.042 13.654 214.795 12.9334 214.795 11.492C214.791 11.2262 214.839 10.9622 214.938 10.7151C215.036 10.468 215.182 10.2426 215.368 10.0518C215.554 9.86099 215.776 9.70852 216.021 9.6031C216.266 9.49767 216.53 9.44135 216.797 9.43735H217.089C218.629 9.43735 219.615 10.5414 219.984 12.2127L219.969 12.3814Z" fill="black"/>
</svg>
